<svg width="46" height="34" viewBox="0 0 46 34" fill="none" xmlns="http://www.w3.org/2000/svg">
<g id="lock-circle">
<path id="Vector" d="M22.5627 10.7073C19.009 10.7073 18.3322 11.7988 18.3322 13.8159V14.6725H26.7931V13.8159C26.7931 11.7988 26.1163 10.7073 22.5627 10.7073Z" fill="#292D32"/>
<path id="Vector_2" d="M22.5626 20.862C23.7049 20.862 24.6309 20.1816 24.6309 19.3423C24.6309 18.5029 23.7049 17.8225 22.5626 17.8225C21.4204 17.8225 20.4944 18.5029 20.4944 19.3423C20.4944 20.1816 21.4204 20.862 22.5626 20.862Z" fill="#292D32"/>
<path id="Vector_3" d="M22.5626 2.76318C12.1838 2.76318 3.76038 8.95271 3.76038 16.5791C3.76038 24.2055 12.1838 30.395 22.5626 30.395C32.9414 30.395 41.3648 24.2055 41.3648 16.5791C41.3648 8.95271 32.9414 2.76318 22.5626 2.76318ZM32.6782 20.0331C32.6782 23.0726 31.3996 24.0121 27.2631 24.0121H17.862C13.7256 24.0121 12.447 23.0726 12.447 20.0331V18.6515C12.447 16.289 13.2179 15.1975 15.5118 14.8245V13.8159C15.5118 12.531 15.5118 8.63495 22.5626 8.63495C29.6134 8.63495 29.6134 12.531 29.6134 13.8159V14.8245C31.9073 15.1975 32.6782 16.289 32.6782 18.6515V20.0331Z" fill="#292D32"/>
</g>
</svg>
